<?xml version="1.0" encoding="utf-8"?>
<!-- Generator: Adobe Illustrator 18.1.0, SVG Export Plug-In . SVG Version: 6.00 Build 0)  -->
<svg version="1.1" id="Capa_1" xmlns="http://www.w3.org/2000/svg" xmlns:xlink="http://www.w3.org/1999/xlink" x="0px" y="0px"
	 viewBox="-49 141 512 512" enable-background="new -49 141 512 512" xml:space="preserve">
<path fill="#80D0DE" d="M207,141C65.6,141-49,255.6-49,397S65.6,653,207,653s256-114.6,256-256S348.4,141,207,141z M359,549
	c-19.8,19.8-42.8,35.3-68.4,46.1c-6.5,2.8-13.1,5.2-19.8,7.2V564c0-20.2-6.9-35-20.8-44.5c8.7-0.8,16.6-2,23.9-3.5s14.9-3.7,23-6.5
	s15.3-6.2,21.8-10.1s12.6-9,18.5-15.2s10.9-13.3,14.9-21.2s7.2-17.4,9.5-28.5s3.5-23.3,3.5-36.6c0-25.8-8.4-47.8-25.2-66
	c7.7-20,6.8-41.8-2.5-65.2l-6.2-0.8c-4.3-0.5-12.1,1.3-23.4,5.5s-23.9,11-37.9,20.5c-19.8-5.5-40.4-8.2-61.8-8.2
	c-21.5,0-42,2.8-61.5,8.2c-8.8-6-17.2-11-25.1-14.9s-14.2-6.6-19-8s-9.2-2.3-13.2-2.6s-6.7-0.4-7.9-0.2s-2,0.3-2.5,0.5
	c-9.3,23.7-10.2,45.4-2.5,65.2c-16.8,18.2-25.2,40.2-25.2,66c0,13.3,1.2,25.5,3.5,36.6s5.5,20.6,9.5,28.5s9,15,14.9,21.2
	c5.9,6.2,12.1,11.3,18.5,15.2s13.7,7.3,21.8,10.1s15.8,5,23,6.5s15.2,2.7,23.9,3.5c-13.7,9.3-20.5,24.2-20.5,44.5v39.1
	c-7.5-2.2-15-4.9-22.3-8C97.7,584.3,74.7,568.8,55,549c-19.8-19.8-35.3-42.8-46.1-68.4C-2.3,454.2-8,426-8,397s5.7-57.2,16.9-83.7
	C19.7,287.7,35.2,264.7,55,245s42.8-35.3,68.4-46.1C149.8,187.7,178,182,207,182s57.2,5.7,83.7,16.9c25.6,10.8,48.6,26.3,68.4,46.1
	c19.8,19.8,35.3,42.8,46.1,68.4C416.3,339.8,422,368,422,397s-5.7,57.2-16.9,83.7C394.3,506.3,378.8,529.3,359,549z"/>
</svg>
