<?xml version="1.0" encoding="utf-8"?>
<!-- Generator: Adobe Illustrator 18.1.0, SVG Export Plug-In . SVG Version: 6.00 Build 0)  -->
<svg version="1.1" id="Capa_1" xmlns="http://www.w3.org/2000/svg" xmlns:xlink="http://www.w3.org/1999/xlink" x="0px" y="0px"
	 viewBox="-297 389 16 16" enable-background="new -297 389 16 16" xml:space="preserve">
<path fill="#80D0DE" d="M-289,389c-4.4,0-8,3.6-8,8s3.6,8,8,8s8-3.6,8-8C-281,392.6-284.6,389-289,389z M-291,400.9h-2v-7h2V400.9z
	 M-291.9,393.4c-0.5,0-0.9-0.4-0.9-0.9s0.4-0.9,0.9-0.9c0.5,0,0.9,0.4,0.9,0.9C-291,393-291.4,393.4-291.9,393.4z M-284,400.9h-2
	v-4.3c0-0.5-0.1-0.9-0.8-0.9c-1,0-1.2,0.9-1.2,0.9v4.3h-2v-7h2v0.7c0.3-0.2,1-0.7,2-0.7c0.6,0,2,0.4,2,2.7V400.9z"/>
</svg>
